<svg 
    xmlns="http://www.w3.org/2000/svg" 
    width="545" 
    height="526" 
    viewBox="0 0 545 526"
>
    <path fill="#454850" fillRule="evenodd" d="M664.617 132L729 195.667 337.42 583 273 519.315 664.617 132zM597 64.933L532.463 1.321 199.336 329.777 121.788 253.3c-19.206-18.9-30.02-43.72-30.509-69.848-.452-25.538 9.123-49.291 26.954-66.908 17.877-17.58 41.96-27.04 67.843-26.62 26.539.473 51.692 11.152 70.88 30.089l32.292 31.82 64.509-63.612-32.255-31.801C285.452 20.923 237.934.857 187.636.029 136.72-.836 89.23 17.955 53.724 52.915 18.22 87.93-.84 134.827.028 185c.915 49.6 21.211 96.424 57.233 131.93L199.336 457 597 64.933z"/>
</svg>